<mxfile host="app.diagrams.net" modified="2022-09-20T11:40:06.562Z" agent="5.0 (Windows NT 10.0; Win64; x64) AppleWebKit/537.36 (KHTML, like Gecko) Chrome/104.0.5112.102 Safari/537.36 OPR/90.0.4480.100" etag="lVdjFQqIqIDs7MEB2lt3" version="20.3.3" type="github">
  <diagram id="o6WNAX1b9HJJHdQuT0hi" name="Página-1">
    <mxGraphModel dx="4948" dy="2284" grid="1" gridSize="10" guides="1" tooltips="1" connect="1" arrows="1" fold="1" page="1" pageScale="1" pageWidth="827" pageHeight="1169" math="0" shadow="0">
      <root>
        <mxCell id="0" />
        <mxCell id="1" parent="0" />
        <mxCell id="IVE4Xu68-3kAGaMcvnML-36" value="" style="endArrow=classic;html=1;rounded=0;fontFamily=Comic Sans MS;fontSize=14;entryX=0.5;entryY=0.011;entryDx=0;entryDy=0;entryPerimeter=0;" parent="1" edge="1">
          <mxGeometry width="50" height="50" relative="1" as="geometry">
            <mxPoint x="381" y="125" as="sourcePoint" />
            <mxPoint x="380.66499999999996" y="171.20999999999958" as="targetPoint" />
          </mxGeometry>
        </mxCell>
        <mxCell id="IVE4Xu68-3kAGaMcvnML-25" value="" style="rounded=1;whiteSpace=wrap;html=1;strokeWidth=1;fontFamily=Comic Sans MS;fontStyle=1;labelBackgroundColor=#B266FF;gradientColor=none;" parent="1" vertex="1">
          <mxGeometry x="320.65999999999997" y="60" width="120" height="60" as="geometry" />
        </mxCell>
        <mxCell id="IVE4Xu68-3kAGaMcvnML-26" value="INIT" style="text;html=1;resizable=0;autosize=1;align=center;verticalAlign=middle;points=[];fillColor=none;strokeColor=none;rounded=0;labelBackgroundColor=none;strokeWidth=1;fontFamily=Comic Sans MS;" parent="1" vertex="1">
          <mxGeometry x="355.65999999999997" y="75" width="50" height="30" as="geometry" />
        </mxCell>
        <mxCell id="IVE4Xu68-3kAGaMcvnML-27" value="" style="endArrow=classic;html=1;rounded=0;fontFamily=Comic Sans MS;exitX=0.5;exitY=1;exitDx=0;exitDy=0;" parent="1" source="IVE4Xu68-3kAGaMcvnML-25" edge="1">
          <mxGeometry width="50" height="50" relative="1" as="geometry">
            <mxPoint x="310.65999999999997" y="140" as="sourcePoint" />
            <mxPoint x="380.65999999999997" y="170" as="targetPoint" />
          </mxGeometry>
        </mxCell>
        <mxCell id="mDKdihSyMUJzPT5FfRHo-2" style="edgeStyle=orthogonalEdgeStyle;rounded=0;orthogonalLoop=1;jettySize=auto;html=1;exitX=0.5;exitY=1;exitDx=0;exitDy=0;" edge="1" parent="1" source="mDKdihSyMUJzPT5FfRHo-1">
          <mxGeometry relative="1" as="geometry">
            <mxPoint x="381" y="235" as="targetPoint" />
          </mxGeometry>
        </mxCell>
        <mxCell id="mDKdihSyMUJzPT5FfRHo-1" value="escribir (&quot;introduce dinero&quot;)" style="shape=parallelogram;perimeter=parallelogramPerimeter;whiteSpace=wrap;html=1;fixedSize=1;" vertex="1" parent="1">
          <mxGeometry x="291.65999999999997" y="175" width="178" height="20" as="geometry" />
        </mxCell>
        <mxCell id="mDKdihSyMUJzPT5FfRHo-3" value="leer (&quot;dinero_introducido&quot;)" style="shape=parallelogram;perimeter=parallelogramPerimeter;whiteSpace=wrap;html=1;fixedSize=1;" vertex="1" parent="1">
          <mxGeometry x="299" y="235" width="170" height="20" as="geometry" />
        </mxCell>
        <mxCell id="mDKdihSyMUJzPT5FfRHo-4" value="&lt;h4 style=&quot;font-size: 24px;&quot;&gt;IF&lt;/h4&gt;" style="html=1;whiteSpace=wrap;aspect=fixed;shape=isoRectangle;labelBackgroundColor=none;strokeColor=default;strokeWidth=1;fontFamily=Comic Sans MS;gradientColor=none;" vertex="1" parent="1">
          <mxGeometry x="326.5" y="290" width="108.33" height="65" as="geometry" />
        </mxCell>
        <mxCell id="mDKdihSyMUJzPT5FfRHo-5" value="" style="endArrow=none;html=1;rounded=0;fontFamily=Comic Sans MS;fontSize=24;entryX=0.002;entryY=0.499;entryDx=0;entryDy=0;entryPerimeter=0;" edge="1" target="mDKdihSyMUJzPT5FfRHo-4" parent="1">
          <mxGeometry width="50" height="50" relative="1" as="geometry">
            <mxPoint x="229" y="355" as="sourcePoint" />
            <mxPoint x="289" y="359.99999999999955" as="targetPoint" />
          </mxGeometry>
        </mxCell>
        <mxCell id="mDKdihSyMUJzPT5FfRHo-6" value="" style="endArrow=none;html=1;rounded=0;fontFamily=Comic Sans MS;fontSize=24;" edge="1" parent="1">
          <mxGeometry width="50" height="50" relative="1" as="geometry">
            <mxPoint x="229" y="445" as="sourcePoint" />
            <mxPoint x="229" y="355" as="targetPoint" />
          </mxGeometry>
        </mxCell>
        <mxCell id="mDKdihSyMUJzPT5FfRHo-8" value="" style="endArrow=none;html=1;rounded=0;fontFamily=Comic Sans MS;fontSize=24;" edge="1" parent="1">
          <mxGeometry width="50" height="50" relative="1" as="geometry">
            <mxPoint x="539" y="425" as="sourcePoint" />
            <mxPoint x="539" y="445" as="targetPoint" />
          </mxGeometry>
        </mxCell>
        <mxCell id="mDKdihSyMUJzPT5FfRHo-9" value="&lt;font size=&quot;1&quot;&gt;entrego botella&amp;nbsp;&lt;/font&gt;" style="rounded=0;whiteSpace=wrap;html=1;labelBackgroundColor=none;strokeColor=default;strokeWidth=1;fontFamily=Comic Sans MS;fontSize=24;gradientColor=none;verticalAlign=bottom;align=center;" vertex="1" parent="1">
          <mxGeometry x="499" y="404.99999999999955" width="80" height="20" as="geometry" />
        </mxCell>
        <mxCell id="mDKdihSyMUJzPT5FfRHo-10" value="" style="endArrow=classic;html=1;rounded=0;fontFamily=Comic Sans MS;fontSize=14;entryX=0.5;entryY=0;entryDx=0;entryDy=0;" edge="1" target="mDKdihSyMUJzPT5FfRHo-9" parent="1">
          <mxGeometry width="50" height="50" relative="1" as="geometry">
            <mxPoint x="539" y="355" as="sourcePoint" />
            <mxPoint x="529" y="434.99999999999955" as="targetPoint" />
          </mxGeometry>
        </mxCell>
        <mxCell id="mDKdihSyMUJzPT5FfRHo-11" value="" style="endArrow=none;html=1;rounded=0;fontFamily=Comic Sans MS;fontSize=14;exitX=0.999;exitY=0.501;exitDx=0;exitDy=0;exitPerimeter=0;" edge="1" source="mDKdihSyMUJzPT5FfRHo-4" parent="1">
          <mxGeometry width="50" height="50" relative="1" as="geometry">
            <mxPoint x="479" y="484.99999999999955" as="sourcePoint" />
            <mxPoint x="539" y="355" as="targetPoint" />
          </mxGeometry>
        </mxCell>
        <mxCell id="mDKdihSyMUJzPT5FfRHo-12" value="" style="endArrow=classic;html=1;rounded=0;fontFamily=Comic Sans MS;fontSize=14;entryX=0.5;entryY=0.011;entryDx=0;entryDy=0;entryPerimeter=0;" edge="1" target="mDKdihSyMUJzPT5FfRHo-4" parent="1">
          <mxGeometry width="50" height="50" relative="1" as="geometry">
            <mxPoint x="381" y="255" as="sourcePoint" />
            <mxPoint x="369" y="424.99999999999955" as="targetPoint" />
          </mxGeometry>
        </mxCell>
        <mxCell id="mDKdihSyMUJzPT5FfRHo-14" value="FALSE" style="text;html=1;strokeColor=none;fillColor=none;align=center;verticalAlign=middle;whiteSpace=wrap;rounded=0;labelBackgroundColor=none;strokeWidth=1;fontFamily=Comic Sans MS;fontSize=14;" vertex="1" parent="1">
          <mxGeometry x="239" y="324.99999999999955" width="60" height="30" as="geometry" />
        </mxCell>
        <mxCell id="mDKdihSyMUJzPT5FfRHo-15" value="TRUE" style="text;html=1;strokeColor=none;fillColor=none;align=center;verticalAlign=middle;whiteSpace=wrap;rounded=0;labelBackgroundColor=none;strokeWidth=1;fontFamily=Comic Sans MS;fontSize=14;" vertex="1" parent="1">
          <mxGeometry x="459" y="324.99999999999955" width="60" height="30" as="geometry" />
        </mxCell>
        <mxCell id="mDKdihSyMUJzPT5FfRHo-16" value="cambio = dinero_introducido - 2" style="rounded=0;whiteSpace=wrap;html=1;" vertex="1" parent="1">
          <mxGeometry x="419" y="445" width="240" height="60" as="geometry" />
        </mxCell>
        <mxCell id="mDKdihSyMUJzPT5FfRHo-18" value="&lt;h4 style=&quot;font-size: 13px;&quot;&gt;cambio &amp;gt;= 500€&lt;/h4&gt;" style="html=1;whiteSpace=wrap;aspect=fixed;shape=isoRectangle;labelBackgroundColor=none;strokeColor=default;strokeWidth=1;fontFamily=Comic Sans MS;gradientColor=none;" vertex="1" parent="1">
          <mxGeometry x="449" y="549.9999999999995" width="183.33" height="110" as="geometry" />
        </mxCell>
        <mxCell id="mDKdihSyMUJzPT5FfRHo-22" value="" style="endArrow=none;html=1;rounded=0;fontFamily=Comic Sans MS;fontSize=24;" edge="1" parent="1">
          <mxGeometry width="50" height="50" relative="1" as="geometry">
            <mxPoint x="539" y="715" as="sourcePoint" />
            <mxPoint x="539" y="735" as="targetPoint" />
          </mxGeometry>
        </mxCell>
        <mxCell id="mDKdihSyMUJzPT5FfRHo-23" value="&lt;font size=&quot;1&quot;&gt;entrego 500€&lt;/font&gt;" style="rounded=0;whiteSpace=wrap;html=1;labelBackgroundColor=none;strokeColor=default;strokeWidth=1;fontFamily=Comic Sans MS;fontSize=24;gradientColor=none;verticalAlign=bottom;align=center;" vertex="1" parent="1">
          <mxGeometry x="499" y="694.9999999999995" width="80" height="20" as="geometry" />
        </mxCell>
        <mxCell id="mDKdihSyMUJzPT5FfRHo-26" value="" style="endArrow=classic;html=1;rounded=0;fontFamily=Comic Sans MS;fontSize=14;entryX=0.5;entryY=0.011;entryDx=0;entryDy=0;entryPerimeter=0;" edge="1" target="mDKdihSyMUJzPT5FfRHo-18" parent="1">
          <mxGeometry width="50" height="50" relative="1" as="geometry">
            <mxPoint x="541" y="505" as="sourcePoint" />
            <mxPoint x="529" y="674.9999999999995" as="targetPoint" />
          </mxGeometry>
        </mxCell>
        <mxCell id="mDKdihSyMUJzPT5FfRHo-28" value="FALSE" style="text;html=1;strokeColor=none;fillColor=none;align=center;verticalAlign=middle;whiteSpace=wrap;rounded=0;labelBackgroundColor=none;strokeWidth=1;fontFamily=Comic Sans MS;fontSize=14;" vertex="1" parent="1">
          <mxGeometry x="399" y="574.9999999999995" width="60" height="30" as="geometry" />
        </mxCell>
        <mxCell id="mDKdihSyMUJzPT5FfRHo-29" value="TRUE" style="text;html=1;strokeColor=none;fillColor=none;align=center;verticalAlign=middle;whiteSpace=wrap;rounded=0;labelBackgroundColor=none;strokeWidth=1;fontFamily=Comic Sans MS;fontSize=14;" vertex="1" parent="1">
          <mxGeometry x="549" y="659.9999999999995" width="60" height="30" as="geometry" />
        </mxCell>
        <mxCell id="mDKdihSyMUJzPT5FfRHo-30" value="" style="endArrow=classic;html=1;rounded=0;fontSize=13;exitX=0.5;exitY=0.979;exitDx=0;exitDy=0;exitPerimeter=0;entryX=0.5;entryY=0;entryDx=0;entryDy=0;" edge="1" parent="1" source="mDKdihSyMUJzPT5FfRHo-18" target="mDKdihSyMUJzPT5FfRHo-23">
          <mxGeometry width="50" height="50" relative="1" as="geometry">
            <mxPoint x="409" y="695" as="sourcePoint" />
            <mxPoint x="459" y="645" as="targetPoint" />
          </mxGeometry>
        </mxCell>
        <mxCell id="mDKdihSyMUJzPT5FfRHo-32" style="edgeStyle=orthogonalEdgeStyle;rounded=0;orthogonalLoop=1;jettySize=auto;html=1;exitX=1;exitY=0.5;exitDx=0;exitDy=0;entryX=0.984;entryY=0.488;entryDx=0;entryDy=0;entryPerimeter=0;fontSize=13;" edge="1" parent="1" source="mDKdihSyMUJzPT5FfRHo-31" target="mDKdihSyMUJzPT5FfRHo-18">
          <mxGeometry relative="1" as="geometry">
            <Array as="points">
              <mxPoint x="699" y="745" />
              <mxPoint x="699" y="604" />
            </Array>
          </mxGeometry>
        </mxCell>
        <mxCell id="mDKdihSyMUJzPT5FfRHo-31" value="cambio = cambio -500" style="shape=parallelogram;perimeter=parallelogramPerimeter;whiteSpace=wrap;html=1;fixedSize=1;fontSize=13;" vertex="1" parent="1">
          <mxGeometry x="459" y="735" width="160" height="20" as="geometry" />
        </mxCell>
        <mxCell id="mDKdihSyMUJzPT5FfRHo-33" value="" style="curved=1;endArrow=classic;html=1;rounded=0;fontSize=13;exitX=0;exitY=0.5;exitDx=0;exitDy=0;exitPerimeter=0;" edge="1" parent="1" source="mDKdihSyMUJzPT5FfRHo-18">
          <mxGeometry width="50" height="50" relative="1" as="geometry">
            <mxPoint x="419" y="625" as="sourcePoint" />
            <mxPoint x="539" y="795" as="targetPoint" />
            <Array as="points">
              <mxPoint x="399" y="605" />
              <mxPoint x="399" y="655" />
              <mxPoint x="429" y="765" />
              <mxPoint x="539" y="775" />
            </Array>
          </mxGeometry>
        </mxCell>
        <mxCell id="mDKdihSyMUJzPT5FfRHo-36" style="edgeStyle=orthogonalEdgeStyle;rounded=0;orthogonalLoop=1;jettySize=auto;html=1;exitX=1;exitY=0.5;exitDx=0;exitDy=0;entryX=0.5;entryY=0;entryDx=0;entryDy=0;fontSize=10;" edge="1" parent="1" source="mDKdihSyMUJzPT5FfRHo-34" target="mDKdihSyMUJzPT5FfRHo-35">
          <mxGeometry relative="1" as="geometry" />
        </mxCell>
        <mxCell id="mDKdihSyMUJzPT5FfRHo-42" style="edgeStyle=orthogonalEdgeStyle;rounded=0;orthogonalLoop=1;jettySize=auto;html=1;exitX=0;exitY=0.5;exitDx=0;exitDy=0;entryX=0.5;entryY=0;entryDx=0;entryDy=0;fontSize=10;" edge="1" parent="1" source="mDKdihSyMUJzPT5FfRHo-34" target="mDKdihSyMUJzPT5FfRHo-40">
          <mxGeometry relative="1" as="geometry" />
        </mxCell>
        <mxCell id="mDKdihSyMUJzPT5FfRHo-34" value="cambio &amp;gt;= 100" style="rhombus;whiteSpace=wrap;html=1;fontSize=13;" vertex="1" parent="1">
          <mxGeometry x="479" y="795" width="120" height="50" as="geometry" />
        </mxCell>
        <mxCell id="mDKdihSyMUJzPT5FfRHo-38" style="edgeStyle=orthogonalEdgeStyle;rounded=0;orthogonalLoop=1;jettySize=auto;html=1;exitX=0.5;exitY=1;exitDx=0;exitDy=0;entryX=0.5;entryY=0;entryDx=0;entryDy=0;fontSize=10;" edge="1" parent="1" source="mDKdihSyMUJzPT5FfRHo-35" target="mDKdihSyMUJzPT5FfRHo-37">
          <mxGeometry relative="1" as="geometry" />
        </mxCell>
        <mxCell id="mDKdihSyMUJzPT5FfRHo-35" value="entrego 100€" style="rounded=0;whiteSpace=wrap;html=1;fontSize=10;" vertex="1" parent="1">
          <mxGeometry x="593" y="865" width="120" height="20" as="geometry" />
        </mxCell>
        <mxCell id="mDKdihSyMUJzPT5FfRHo-37" value="cambio = cambio - 100€" style="shape=parallelogram;perimeter=parallelogramPerimeter;whiteSpace=wrap;html=1;fixedSize=1;fontSize=10;" vertex="1" parent="1">
          <mxGeometry x="589" y="925" width="130" height="20" as="geometry" />
        </mxCell>
        <mxCell id="mDKdihSyMUJzPT5FfRHo-45" style="edgeStyle=orthogonalEdgeStyle;rounded=0;orthogonalLoop=1;jettySize=auto;html=1;exitX=1;exitY=0.5;exitDx=0;exitDy=0;entryX=0.5;entryY=0;entryDx=0;entryDy=0;fontSize=10;" edge="1" parent="1" source="mDKdihSyMUJzPT5FfRHo-40" target="mDKdihSyMUJzPT5FfRHo-44">
          <mxGeometry relative="1" as="geometry" />
        </mxCell>
        <mxCell id="mDKdihSyMUJzPT5FfRHo-56" style="edgeStyle=orthogonalEdgeStyle;rounded=0;orthogonalLoop=1;jettySize=auto;html=1;exitX=0;exitY=0.5;exitDx=0;exitDy=0;entryX=0.5;entryY=0;entryDx=0;entryDy=0;fontSize=10;" edge="1" parent="1" source="mDKdihSyMUJzPT5FfRHo-40" target="mDKdihSyMUJzPT5FfRHo-48">
          <mxGeometry relative="1" as="geometry" />
        </mxCell>
        <mxCell id="mDKdihSyMUJzPT5FfRHo-40" value="cambio &amp;gt;= 50€" style="rhombus;whiteSpace=wrap;html=1;fontSize=10;" vertex="1" parent="1">
          <mxGeometry x="479" y="965" width="120" height="40" as="geometry" />
        </mxCell>
        <mxCell id="mDKdihSyMUJzPT5FfRHo-41" value="" style="curved=1;endArrow=classic;html=1;rounded=0;fontSize=10;exitX=0.5;exitY=1;exitDx=0;exitDy=0;entryX=0.5;entryY=0;entryDx=0;entryDy=0;" edge="1" parent="1" source="mDKdihSyMUJzPT5FfRHo-37" target="mDKdihSyMUJzPT5FfRHo-40">
          <mxGeometry width="50" height="50" relative="1" as="geometry">
            <mxPoint x="669" y="1035" as="sourcePoint" />
            <mxPoint x="719" y="985" as="targetPoint" />
            <Array as="points">
              <mxPoint x="649" y="985" />
              <mxPoint x="529" y="925" />
            </Array>
          </mxGeometry>
        </mxCell>
        <mxCell id="mDKdihSyMUJzPT5FfRHo-47" value="" style="edgeStyle=orthogonalEdgeStyle;rounded=0;orthogonalLoop=1;jettySize=auto;html=1;fontSize=10;" edge="1" parent="1" source="mDKdihSyMUJzPT5FfRHo-44" target="mDKdihSyMUJzPT5FfRHo-46">
          <mxGeometry relative="1" as="geometry" />
        </mxCell>
        <mxCell id="mDKdihSyMUJzPT5FfRHo-44" value="entrego 50€" style="rounded=0;whiteSpace=wrap;html=1;fontSize=10;" vertex="1" parent="1">
          <mxGeometry x="594" y="1035" width="120" height="20" as="geometry" />
        </mxCell>
        <mxCell id="mDKdihSyMUJzPT5FfRHo-55" style="edgeStyle=orthogonalEdgeStyle;rounded=0;orthogonalLoop=1;jettySize=auto;html=1;exitX=0.5;exitY=1;exitDx=0;exitDy=0;entryX=0.5;entryY=0;entryDx=0;entryDy=0;fontSize=10;" edge="1" parent="1" source="mDKdihSyMUJzPT5FfRHo-46" target="mDKdihSyMUJzPT5FfRHo-48">
          <mxGeometry relative="1" as="geometry" />
        </mxCell>
        <mxCell id="mDKdihSyMUJzPT5FfRHo-46" value="cambio = cambio - 50€" style="shape=parallelogram;perimeter=parallelogramPerimeter;whiteSpace=wrap;html=1;fixedSize=1;fontSize=10;" vertex="1" parent="1">
          <mxGeometry x="584" y="1105" width="130" height="20" as="geometry" />
        </mxCell>
        <mxCell id="mDKdihSyMUJzPT5FfRHo-50" value="" style="edgeStyle=orthogonalEdgeStyle;rounded=0;orthogonalLoop=1;jettySize=auto;html=1;fontSize=10;" edge="1" parent="1" source="mDKdihSyMUJzPT5FfRHo-48" target="mDKdihSyMUJzPT5FfRHo-49">
          <mxGeometry relative="1" as="geometry" />
        </mxCell>
        <mxCell id="mDKdihSyMUJzPT5FfRHo-58" style="edgeStyle=orthogonalEdgeStyle;rounded=0;orthogonalLoop=1;jettySize=auto;html=1;exitX=0;exitY=0.5;exitDx=0;exitDy=0;entryX=0.5;entryY=0;entryDx=0;entryDy=0;fontSize=10;" edge="1" parent="1" source="mDKdihSyMUJzPT5FfRHo-48" target="mDKdihSyMUJzPT5FfRHo-57">
          <mxGeometry relative="1" as="geometry">
            <Array as="points">
              <mxPoint x="459" y="1174" />
              <mxPoint x="459" y="1325" />
              <mxPoint x="529" y="1325" />
            </Array>
          </mxGeometry>
        </mxCell>
        <mxCell id="mDKdihSyMUJzPT5FfRHo-48" value="cambio &amp;gt;= 20€" style="rhombus;whiteSpace=wrap;html=1;fontSize=10;" vertex="1" parent="1">
          <mxGeometry x="479" y="1154" width="120" height="40" as="geometry" />
        </mxCell>
        <mxCell id="mDKdihSyMUJzPT5FfRHo-53" value="" style="edgeStyle=orthogonalEdgeStyle;rounded=0;orthogonalLoop=1;jettySize=auto;html=1;fontSize=10;" edge="1" parent="1" source="mDKdihSyMUJzPT5FfRHo-49" target="mDKdihSyMUJzPT5FfRHo-52">
          <mxGeometry relative="1" as="geometry" />
        </mxCell>
        <mxCell id="mDKdihSyMUJzPT5FfRHo-49" value="entrego 20€" style="rounded=0;whiteSpace=wrap;html=1;fontSize=10;" vertex="1" parent="1">
          <mxGeometry x="479" y="1245" width="120" height="20" as="geometry" />
        </mxCell>
        <mxCell id="mDKdihSyMUJzPT5FfRHo-54" style="edgeStyle=orthogonalEdgeStyle;rounded=0;orthogonalLoop=1;jettySize=auto;html=1;exitX=1;exitY=0.5;exitDx=0;exitDy=0;entryX=1;entryY=0.5;entryDx=0;entryDy=0;fontSize=10;" edge="1" parent="1" source="mDKdihSyMUJzPT5FfRHo-52" target="mDKdihSyMUJzPT5FfRHo-48">
          <mxGeometry relative="1" as="geometry">
            <Array as="points">
              <mxPoint x="619" y="1305" />
              <mxPoint x="619" y="1174" />
            </Array>
          </mxGeometry>
        </mxCell>
        <mxCell id="mDKdihSyMUJzPT5FfRHo-52" value="cambio = cambio - 20€" style="shape=parallelogram;perimeter=parallelogramPerimeter;whiteSpace=wrap;html=1;fixedSize=1;fontSize=10;" vertex="1" parent="1">
          <mxGeometry x="474" y="1295" width="130" height="20" as="geometry" />
        </mxCell>
        <mxCell id="mDKdihSyMUJzPT5FfRHo-60" style="edgeStyle=orthogonalEdgeStyle;rounded=0;orthogonalLoop=1;jettySize=auto;html=1;exitX=1;exitY=0.5;exitDx=0;exitDy=0;fontSize=10;" edge="1" parent="1" source="mDKdihSyMUJzPT5FfRHo-57" target="mDKdihSyMUJzPT5FfRHo-59">
          <mxGeometry relative="1" as="geometry" />
        </mxCell>
        <mxCell id="mDKdihSyMUJzPT5FfRHo-66" style="edgeStyle=orthogonalEdgeStyle;rounded=0;orthogonalLoop=1;jettySize=auto;html=1;exitX=0;exitY=0.5;exitDx=0;exitDy=0;entryX=0.5;entryY=0;entryDx=0;entryDy=0;fontSize=10;" edge="1" parent="1" source="mDKdihSyMUJzPT5FfRHo-57" target="mDKdihSyMUJzPT5FfRHo-69">
          <mxGeometry relative="1" as="geometry">
            <mxPoint x="533" y="1515.0000000000002" as="targetPoint" />
          </mxGeometry>
        </mxCell>
        <mxCell id="mDKdihSyMUJzPT5FfRHo-57" value="cambio &amp;gt;= 10€" style="rhombus;whiteSpace=wrap;html=1;fontSize=10;" vertex="1" parent="1">
          <mxGeometry x="469.66" y="1345" width="120" height="40" as="geometry" />
        </mxCell>
        <mxCell id="mDKdihSyMUJzPT5FfRHo-62" value="" style="edgeStyle=orthogonalEdgeStyle;rounded=0;orthogonalLoop=1;jettySize=auto;html=1;fontSize=10;" edge="1" parent="1" source="mDKdihSyMUJzPT5FfRHo-59" target="mDKdihSyMUJzPT5FfRHo-61">
          <mxGeometry relative="1" as="geometry" />
        </mxCell>
        <mxCell id="mDKdihSyMUJzPT5FfRHo-59" value="entrego 10€" style="rounded=0;whiteSpace=wrap;html=1;fontSize=10;" vertex="1" parent="1">
          <mxGeometry x="594" y="1405" width="120" height="20" as="geometry" />
        </mxCell>
        <mxCell id="mDKdihSyMUJzPT5FfRHo-65" style="edgeStyle=orthogonalEdgeStyle;rounded=0;orthogonalLoop=1;jettySize=auto;html=1;exitX=0.5;exitY=1;exitDx=0;exitDy=0;entryX=0.5;entryY=0;entryDx=0;entryDy=0;fontSize=10;" edge="1" parent="1" source="mDKdihSyMUJzPT5FfRHo-61" target="mDKdihSyMUJzPT5FfRHo-69">
          <mxGeometry relative="1" as="geometry">
            <mxPoint x="533" y="1515.0000000000002" as="targetPoint" />
          </mxGeometry>
        </mxCell>
        <mxCell id="mDKdihSyMUJzPT5FfRHo-61" value="cambio = cambio - 10€" style="shape=parallelogram;perimeter=parallelogramPerimeter;whiteSpace=wrap;html=1;fixedSize=1;fontSize=10;" vertex="1" parent="1">
          <mxGeometry x="584" y="1465" width="130" height="20" as="geometry" />
        </mxCell>
        <mxCell id="mDKdihSyMUJzPT5FfRHo-67" style="edgeStyle=orthogonalEdgeStyle;rounded=0;orthogonalLoop=1;jettySize=auto;html=1;exitX=1;exitY=0.5;exitDx=0;exitDy=0;fontSize=10;" edge="1" parent="1" source="mDKdihSyMUJzPT5FfRHo-69" target="mDKdihSyMUJzPT5FfRHo-71">
          <mxGeometry relative="1" as="geometry" />
        </mxCell>
        <mxCell id="mDKdihSyMUJzPT5FfRHo-68" style="edgeStyle=orthogonalEdgeStyle;rounded=0;orthogonalLoop=1;jettySize=auto;html=1;exitX=0;exitY=0.5;exitDx=0;exitDy=0;entryX=0.5;entryY=0;entryDx=0;entryDy=0;fontSize=10;" edge="1" parent="1" source="mDKdihSyMUJzPT5FfRHo-69" target="mDKdihSyMUJzPT5FfRHo-77">
          <mxGeometry relative="1" as="geometry">
            <mxPoint x="538" y="1685.0000000000002" as="targetPoint" />
          </mxGeometry>
        </mxCell>
        <mxCell id="mDKdihSyMUJzPT5FfRHo-69" value="cambio &amp;gt;= 5€" style="rhombus;whiteSpace=wrap;html=1;fontSize=10;" vertex="1" parent="1">
          <mxGeometry x="474.66" y="1515" width="120" height="40" as="geometry" />
        </mxCell>
        <mxCell id="mDKdihSyMUJzPT5FfRHo-70" value="" style="edgeStyle=orthogonalEdgeStyle;rounded=0;orthogonalLoop=1;jettySize=auto;html=1;fontSize=10;" edge="1" parent="1" source="mDKdihSyMUJzPT5FfRHo-71" target="mDKdihSyMUJzPT5FfRHo-73">
          <mxGeometry relative="1" as="geometry" />
        </mxCell>
        <mxCell id="mDKdihSyMUJzPT5FfRHo-71" value="entrego 5€" style="rounded=0;whiteSpace=wrap;html=1;fontSize=10;" vertex="1" parent="1">
          <mxGeometry x="599" y="1575" width="120" height="20" as="geometry" />
        </mxCell>
        <mxCell id="mDKdihSyMUJzPT5FfRHo-72" style="edgeStyle=orthogonalEdgeStyle;rounded=0;orthogonalLoop=1;jettySize=auto;html=1;exitX=0.5;exitY=1;exitDx=0;exitDy=0;entryX=0.5;entryY=0;entryDx=0;entryDy=0;fontSize=10;" edge="1" parent="1" source="mDKdihSyMUJzPT5FfRHo-73" target="mDKdihSyMUJzPT5FfRHo-77">
          <mxGeometry relative="1" as="geometry">
            <mxPoint x="538" y="1685.0000000000002" as="targetPoint" />
          </mxGeometry>
        </mxCell>
        <mxCell id="mDKdihSyMUJzPT5FfRHo-73" value="cambio = cambio - 5€" style="shape=parallelogram;perimeter=parallelogramPerimeter;whiteSpace=wrap;html=1;fixedSize=1;fontSize=10;" vertex="1" parent="1">
          <mxGeometry x="589" y="1635" width="130" height="20" as="geometry" />
        </mxCell>
        <mxCell id="mDKdihSyMUJzPT5FfRHo-75" value="" style="edgeStyle=orthogonalEdgeStyle;rounded=0;orthogonalLoop=1;jettySize=auto;html=1;fontSize=10;" edge="1" parent="1" source="mDKdihSyMUJzPT5FfRHo-77" target="mDKdihSyMUJzPT5FfRHo-79">
          <mxGeometry relative="1" as="geometry" />
        </mxCell>
        <mxCell id="mDKdihSyMUJzPT5FfRHo-76" style="edgeStyle=orthogonalEdgeStyle;rounded=0;orthogonalLoop=1;jettySize=auto;html=1;exitX=0;exitY=0.5;exitDx=0;exitDy=0;entryX=0.5;entryY=0;entryDx=0;entryDy=0;fontSize=10;" edge="1" parent="1" source="mDKdihSyMUJzPT5FfRHo-77" target="mDKdihSyMUJzPT5FfRHo-84">
          <mxGeometry relative="1" as="geometry">
            <mxPoint x="529.6600000000001" y="1876.0000000000002" as="targetPoint" />
            <Array as="points">
              <mxPoint x="459" y="1705" />
              <mxPoint x="459" y="1856" />
              <mxPoint x="530" y="1856" />
            </Array>
          </mxGeometry>
        </mxCell>
        <mxCell id="mDKdihSyMUJzPT5FfRHo-77" value="cambio &amp;gt;= 2€" style="rhombus;whiteSpace=wrap;html=1;fontSize=10;" vertex="1" parent="1">
          <mxGeometry x="479" y="1685" width="120" height="40" as="geometry" />
        </mxCell>
        <mxCell id="mDKdihSyMUJzPT5FfRHo-78" value="" style="edgeStyle=orthogonalEdgeStyle;rounded=0;orthogonalLoop=1;jettySize=auto;html=1;fontSize=10;" edge="1" parent="1" source="mDKdihSyMUJzPT5FfRHo-79" target="mDKdihSyMUJzPT5FfRHo-81">
          <mxGeometry relative="1" as="geometry" />
        </mxCell>
        <mxCell id="mDKdihSyMUJzPT5FfRHo-79" value="entrego 2€" style="rounded=0;whiteSpace=wrap;html=1;fontSize=10;" vertex="1" parent="1">
          <mxGeometry x="479" y="1776" width="120" height="20" as="geometry" />
        </mxCell>
        <mxCell id="mDKdihSyMUJzPT5FfRHo-80" style="edgeStyle=orthogonalEdgeStyle;rounded=0;orthogonalLoop=1;jettySize=auto;html=1;exitX=1;exitY=0.5;exitDx=0;exitDy=0;entryX=1;entryY=0.5;entryDx=0;entryDy=0;fontSize=10;" edge="1" parent="1" source="mDKdihSyMUJzPT5FfRHo-81" target="mDKdihSyMUJzPT5FfRHo-77">
          <mxGeometry relative="1" as="geometry">
            <Array as="points">
              <mxPoint x="619" y="1836" />
              <mxPoint x="619" y="1705" />
            </Array>
          </mxGeometry>
        </mxCell>
        <mxCell id="mDKdihSyMUJzPT5FfRHo-81" value="cambio = cambio - 2€" style="shape=parallelogram;perimeter=parallelogramPerimeter;whiteSpace=wrap;html=1;fixedSize=1;fontSize=10;" vertex="1" parent="1">
          <mxGeometry x="474" y="1826" width="130" height="20" as="geometry" />
        </mxCell>
        <mxCell id="mDKdihSyMUJzPT5FfRHo-82" style="edgeStyle=orthogonalEdgeStyle;rounded=0;orthogonalLoop=1;jettySize=auto;html=1;exitX=1;exitY=0.5;exitDx=0;exitDy=0;fontSize=10;" edge="1" parent="1" source="mDKdihSyMUJzPT5FfRHo-84" target="mDKdihSyMUJzPT5FfRHo-86">
          <mxGeometry relative="1" as="geometry" />
        </mxCell>
        <mxCell id="mDKdihSyMUJzPT5FfRHo-83" style="edgeStyle=orthogonalEdgeStyle;rounded=0;orthogonalLoop=1;jettySize=auto;html=1;exitX=0;exitY=0.5;exitDx=0;exitDy=0;entryX=0.5;entryY=0;entryDx=0;entryDy=0;fontSize=10;" edge="1" parent="1" source="mDKdihSyMUJzPT5FfRHo-84" target="mDKdihSyMUJzPT5FfRHo-90">
          <mxGeometry relative="1" as="geometry">
            <mxPoint x="534" y="2045" as="targetPoint" />
          </mxGeometry>
        </mxCell>
        <mxCell id="mDKdihSyMUJzPT5FfRHo-84" value="cambio &amp;gt;= 1€" style="rhombus;whiteSpace=wrap;html=1;fontSize=10;" vertex="1" parent="1">
          <mxGeometry x="469.66" y="1875" width="120" height="40" as="geometry" />
        </mxCell>
        <mxCell id="mDKdihSyMUJzPT5FfRHo-85" value="" style="edgeStyle=orthogonalEdgeStyle;rounded=0;orthogonalLoop=1;jettySize=auto;html=1;fontSize=10;" edge="1" parent="1" source="mDKdihSyMUJzPT5FfRHo-86" target="mDKdihSyMUJzPT5FfRHo-88">
          <mxGeometry relative="1" as="geometry" />
        </mxCell>
        <mxCell id="mDKdihSyMUJzPT5FfRHo-86" value="entrego 1€" style="rounded=0;whiteSpace=wrap;html=1;fontSize=10;" vertex="1" parent="1">
          <mxGeometry x="594" y="1935" width="120" height="20" as="geometry" />
        </mxCell>
        <mxCell id="mDKdihSyMUJzPT5FfRHo-87" style="edgeStyle=orthogonalEdgeStyle;rounded=0;orthogonalLoop=1;jettySize=auto;html=1;exitX=0.5;exitY=1;exitDx=0;exitDy=0;entryX=0.5;entryY=0;entryDx=0;entryDy=0;fontSize=10;" edge="1" parent="1" source="mDKdihSyMUJzPT5FfRHo-88" target="mDKdihSyMUJzPT5FfRHo-90">
          <mxGeometry relative="1" as="geometry">
            <mxPoint x="534" y="2045" as="targetPoint" />
          </mxGeometry>
        </mxCell>
        <mxCell id="mDKdihSyMUJzPT5FfRHo-88" value="cambio = cambio - 1€" style="shape=parallelogram;perimeter=parallelogramPerimeter;whiteSpace=wrap;html=1;fixedSize=1;fontSize=10;" vertex="1" parent="1">
          <mxGeometry x="584" y="1995" width="130" height="20" as="geometry" />
        </mxCell>
        <mxCell id="mDKdihSyMUJzPT5FfRHo-94" style="edgeStyle=orthogonalEdgeStyle;rounded=0;orthogonalLoop=1;jettySize=auto;html=1;exitX=0.5;exitY=1;exitDx=0;exitDy=0;entryX=0.5;entryY=0;entryDx=0;entryDy=0;fontSize=10;" edge="1" parent="1" source="mDKdihSyMUJzPT5FfRHo-89" target="mDKdihSyMUJzPT5FfRHo-92">
          <mxGeometry relative="1" as="geometry">
            <Array as="points">
              <mxPoint x="209" y="2125" />
              <mxPoint x="449" y="2125" />
            </Array>
          </mxGeometry>
        </mxCell>
        <mxCell id="mDKdihSyMUJzPT5FfRHo-89" value="escribir (“la cantidad de dinero no es suficiente, introduce mas dinero”)" style="shape=parallelogram;perimeter=parallelogramPerimeter;whiteSpace=wrap;html=1;fixedSize=1;fontSize=10;" vertex="1" parent="1">
          <mxGeometry x="109" y="445" width="200" height="60" as="geometry" />
        </mxCell>
        <mxCell id="mDKdihSyMUJzPT5FfRHo-93" style="edgeStyle=orthogonalEdgeStyle;rounded=0;orthogonalLoop=1;jettySize=auto;html=1;exitX=0.5;exitY=1;exitDx=0;exitDy=0;entryX=0.5;entryY=0;entryDx=0;entryDy=0;fontSize=10;" edge="1" parent="1" source="mDKdihSyMUJzPT5FfRHo-90" target="mDKdihSyMUJzPT5FfRHo-92">
          <mxGeometry relative="1" as="geometry" />
        </mxCell>
        <mxCell id="mDKdihSyMUJzPT5FfRHo-90" value="&lt;div&gt;leer(“gracias por su compra, recoja el cambio”)&lt;/div&gt;" style="rounded=0;whiteSpace=wrap;html=1;fontSize=10;" vertex="1" parent="1">
          <mxGeometry x="474.66" y="2075" width="120" height="60" as="geometry" />
        </mxCell>
        <mxCell id="mDKdihSyMUJzPT5FfRHo-92" value="END" style="rounded=1;whiteSpace=wrap;html=1;fontSize=10;" vertex="1" parent="1">
          <mxGeometry x="389" y="2165" width="120" height="60" as="geometry" />
        </mxCell>
      </root>
    </mxGraphModel>
  </diagram>
</mxfile>
